<svg width="76" height="67" viewBox="0 0 76 67" fill="none" xmlns="http://www.w3.org/2000/svg">
<g clip-path="url(#clip0_1078_4621)">
<path d="M63.1866 41.6407C63.1866 56.5094 50.8772 68.4654 36.0085 67.5781C20.7278 66.6665 10.2685 51.9708 12.238 36.6097C13.4299 27.2667 17.8101 19.2547 22.5779 13.0391C23.4066 11.9544 24.2573 20.6831 25.108 19.7227C25.9611 18.7355 33.8684 5.05136 36.6179 0.244611C36.7361 0.0325963 36.8986 -0.151486 37.0943 -0.295129C37.29 -0.438772 37.5143 -0.538611 37.752 -0.587864C37.9898 -0.637117 38.2353 -0.634631 38.4719 -0.580573C38.7086 -0.526516 38.9309 -0.422153 39.1236 -0.274576C44.647 3.89355 63.1866 19.5496 63.1866 41.6407Z" fill="#FF6723"/>
<path d="M55.8741 47.7618C55.8741 57.6142 47.2966 65.5336 36.8641 65.1753C25.6028 64.7951 17.8808 54.4893 19.5334 43.874C21.9197 28.6542 37.5441 18.875 37.5441 18.875C37.5441 18.875 55.8741 30.3483 55.8741 47.7618Z" fill="#FFB02E"/>
</g>
<defs>
<clipPath id="clip0_1078_4621">
<rect width="75.1866" height="67" fill="white"/>
</clipPath>
</defs>
</svg>
