<svg width="35" height="36" viewBox="0 0 35 36" fill="none" xmlns="http://www.w3.org/2000/svg">
<path d="M0.833496 17.9987C0.833496 10.142 0.833496 6.2137 3.2735 3.77203C5.71683 1.33203 9.6435 1.33203 17.5002 1.33203C25.3568 1.33203 29.2852 1.33203 31.7252 3.77203C34.1668 6.21536 34.1668 10.142 34.1668 17.9987C34.1668 25.8554 34.1668 29.7837 31.7252 32.2237C29.2868 34.6654 25.3568 34.6654 17.5002 34.6654C9.6435 34.6654 5.71516 34.6654 3.2735 32.2237C0.833496 29.7854 0.833496 25.8554 0.833496 17.9987Z" stroke="black" stroke-width="1.5"/>
<path d="M24.1668 14.6667C26.0078 14.6667 27.5002 13.1743 27.5002 11.3333C27.5002 9.49238 26.0078 8 24.1668 8C22.3259 8 20.8335 9.49238 20.8335 11.3333C20.8335 13.1743 22.3259 14.6667 24.1668 14.6667Z" stroke="black" stroke-width="1.5"/>
<path d="M0.833496 18.8306L3.7535 16.2756C4.48539 15.6357 5.43307 15.2978 6.4047 15.3303C7.37633 15.3628 8.29932 15.7632 8.98683 16.4506L16.1368 23.6006C16.6917 24.1553 17.4244 24.4965 18.2061 24.5642C18.9877 24.6319 19.7682 24.4217 20.4102 23.9706L20.9085 23.6206C21.8345 22.9702 22.9537 22.6532 24.0832 22.7213C25.2127 22.7894 26.2857 23.2386 27.1268 23.9956L32.5002 28.8306" stroke="black" stroke-width="1.5" stroke-linecap="round"/>
</svg>
