<svg width="71" height="75" viewBox="0 0 71 75" fill="none" xmlns="http://www.w3.org/2000/svg">
<path fill-rule="evenodd" clip-rule="evenodd" d="M34.3107 26.5957C35.1786 27.0278 36.15 27.3403 37.225 27.5332C39.9571 28.0046 42.1375 30.0939 42.7322 32.8046L42.8339 33.2653C45.0304 43.2832 58.8357 43.7278 61.9911 34.4868C63.1161 36.3939 63.8661 38.5582 64.1232 40.8886L66.3196 60.635C66.6388 63.4795 65.9461 66.3456 64.3631 68.7304C62.7802 71.1152 60.408 72.8664 57.6628 73.6769C54.9176 74.4873 51.9746 74.3053 49.3502 73.1626C46.7259 72.0199 44.5877 69.9896 43.3107 67.4278L41.3929 63.5921H25.5357L23.6179 67.4278C22.3388 69.9857 20.2006 72.0121 17.5778 73.152C14.955 74.2919 12.0147 74.4728 9.27196 73.6628C6.52921 72.8529 4.15883 71.1039 2.57597 68.722C0.99311 66.3402 0.298677 63.4774 0.614294 60.635L2.81072 40.8886C3.24819 36.9598 5.11822 33.3302 8.06333 30.6934C11.0084 28.0566 14.822 26.5978 18.775 26.5957H34.3107Z" fill="#8FBFFA"/>
<path fill-rule="evenodd" clip-rule="evenodd" d="M19.5893 36.4583C21.4429 36.4583 22.9375 37.9583 22.9375 39.8065V42.6244H25.7607C26.6487 42.6244 27.5003 42.9771 28.1283 43.605C28.7562 44.233 29.1089 45.0846 29.1089 45.9726C29.1089 46.8606 28.7562 47.7122 28.1283 48.3401C27.5003 48.968 26.6487 49.3208 25.7607 49.3208H22.9375V52.1387C22.9375 53.0267 22.5847 53.8783 21.9568 54.5062C21.3289 55.1341 20.4773 55.4869 19.5893 55.4869C18.7013 55.4869 17.8496 55.1341 17.2217 54.5062C16.5938 53.8783 16.2411 53.0267 16.2411 52.1387V49.3262H13.4286C12.5406 49.3262 11.6889 48.9734 11.061 48.3455C10.4331 47.7176 10.0804 46.8659 10.0804 45.9779C10.0804 45.0899 10.4331 44.2383 11.061 43.6104C11.6889 42.9825 12.5406 42.6297 13.4286 42.6297H16.2464V39.8119C16.2464 37.9637 17.7464 36.4637 19.5946 36.4637L19.5893 36.4583ZM48.7429 49.2779C48.7608 49.7228 48.6886 50.1668 48.5307 50.5831C48.3728 50.9994 48.1324 51.3796 47.824 51.7007C47.5155 52.0218 47.1454 52.2773 46.7358 52.4519C46.3261 52.6264 45.8854 52.7163 45.4402 52.7163C44.9949 52.7163 44.5542 52.6264 44.1446 52.4519C43.735 52.2773 43.3648 52.0218 43.0564 51.7007C42.7479 51.3796 42.5075 50.9994 42.3496 50.5831C42.1917 50.1668 42.1196 49.7228 42.1375 49.2779C42.1719 48.425 42.5348 47.6185 43.1505 47.0272C43.7661 46.4359 44.5866 46.1056 45.4402 46.1056C46.2938 46.1056 47.1143 46.4359 47.7299 47.0272C48.3455 47.6185 48.7085 48.425 48.7429 49.2779ZM56.7464 3.45295C55.7286 -0.993483 49.3857 -0.966698 48.4107 3.49045L48.3732 3.66187L48.2982 4.00473C47.7585 6.42857 46.5112 8.63753 44.7143 10.3514C42.9174 12.0653 40.652 13.207 38.2054 13.6315C33.5607 14.4351 33.5607 21.0994 38.2054 21.9083C40.6593 22.3353 42.9304 23.4836 44.729 25.2068C46.5276 26.9299 47.772 29.1499 48.3036 31.5833L48.4054 32.0494C49.3804 36.5065 55.7286 36.5333 56.7411 32.0815L56.8643 31.5458C57.4194 29.1206 58.6777 26.9131 60.4816 25.1997C62.2855 23.4863 64.5548 22.3433 67.0054 21.9137C71.6553 21.1101 71.6553 14.4297 67.0054 13.6208C64.5689 13.1945 62.3109 12.0628 60.5112 10.366C58.7116 8.6691 57.4491 6.4816 56.8804 4.07437L56.7893 3.66187L56.7357 3.45295H56.7464Z" fill="#2859C5"/>
</svg>
