<svg width="20" height="20" viewBox="0 0 20 20" fill="none" xmlns="http://www.w3.org/2000/svg">
<g clip-path="url(#clip0_1154_6441)">
<path d="M10 4.44444L6.11111 0H0L7.77778 9.44444L14.1783 6.80556L10 4.44444Z" fill="#55ACEE"/>
<path d="M13.8889 0L10 4.44444L12.9944 8.50667L13.6761 7.67944L20 0H13.8889Z" fill="#3B88C3"/>
<path d="M12.9221 8.90236C12.9665 8.7818 12.9948 8.65347 12.9948 8.51736C12.9948 8.22268 12.8778 7.94006 12.6694 7.73169C12.461 7.52331 12.1784 7.40625 11.8837 7.40625H8.17985C7.88516 7.40625 7.60255 7.52331 7.39417 7.73169C7.1858 7.94006 7.06874 8.22268 7.06874 8.51736C7.06874 8.65347 7.09651 8.7818 7.14151 8.90236C5.33151 9.9168 4.10596 11.8507 4.10596 14.0729C4.10596 17.3457 6.75874 19.999 10.0321 19.999C13.3054 19.999 15.9582 17.3457 15.9582 14.0729C15.9576 11.8507 14.7326 9.9168 12.9221 8.90236Z" fill="#FFAC33"/>
<path d="M10.0323 18.5178C12.4869 18.5178 14.4768 16.528 14.4768 14.0734C14.4768 11.6188 12.4869 9.62891 10.0323 9.62891C7.57774 9.62891 5.58789 11.6188 5.58789 14.0734C5.58789 16.528 7.57774 18.5178 10.0323 18.5178Z" fill="#FFD983"/>
<path d="M11.8212 17.0195C11.7403 17.0193 11.6614 16.9938 11.5957 16.9467L10.0001 15.8028L8.40511 16.9467C8.33902 16.9942 8.25965 17.0196 8.17827 17.0194C8.0969 17.0192 8.01765 16.9934 7.95178 16.9456C7.88591 16.8979 7.83677 16.8305 7.81134 16.7532C7.78591 16.6759 7.78548 16.5926 7.81011 16.515L8.40511 14.595L6.82455 13.4811C6.75921 13.4328 6.71072 13.3651 6.68593 13.2876C6.66115 13.2102 6.66133 13.127 6.68645 13.0496C6.71157 12.9723 6.76036 12.9048 6.82591 12.8568C6.89147 12.8087 6.97048 12.7824 7.05177 12.7817L9.00955 12.7789L9.63289 10.9067C9.65839 10.8293 9.70767 10.7619 9.7737 10.7141C9.83974 10.6663 9.91916 10.6406 10.0007 10.6406C10.0822 10.6406 10.1616 10.6663 10.2276 10.7141C10.2937 10.7619 10.3429 10.8293 10.3684 10.9067L10.9812 12.7789L12.949 12.7817C13.0305 12.7821 13.1097 12.8081 13.1755 12.8562C13.2413 12.9042 13.2903 12.9718 13.3155 13.0493C13.3406 13.1267 13.3407 13.2102 13.3157 13.2877C13.2907 13.3653 13.2419 13.4329 13.1762 13.4811L11.5951 14.595L12.1901 16.515C12.2088 16.573 12.2135 16.6347 12.2038 16.6949C12.194 16.755 12.1702 16.8121 12.1342 16.8613C12.0983 16.9105 12.0511 16.9505 11.9967 16.978C11.9423 17.0055 11.8822 17.0197 11.8212 17.0195Z" fill="#FFAC33"/>
</g>
<defs>
<clipPath id="clip0_1154_6441">
<rect width="20" height="20" fill="white"/>
</clipPath>
</defs>
</svg>
