<svg width="76" height="67" viewBox="0 0 76 67" fill="none" xmlns="http://www.w3.org/2000/svg">
<g clip-path="url(#clip0_1078_4631)">
<g filter="url(#filter0_i_1078_4631)">
<path fill-rule="evenodd" clip-rule="evenodd" d="M45.3165 9.64844L41.1235 10.9773L42.9915 16.8789C43.041 17.0353 43.0487 17.202 43.0137 17.3624C42.9786 17.5227 42.9021 17.671 42.7918 17.7924C42.6814 17.9139 42.5412 18.0043 42.385 18.0546C42.2288 18.1049 42.0621 18.1132 41.9016 18.0789L34.5071 16.4898L33.5836 20.7906L40.9641 22.375C41.1252 22.4096 41.2742 22.4861 41.3963 22.5967C41.5184 22.7072 41.6092 22.848 41.6596 23.0048C41.71 23.1617 41.7181 23.329 41.6833 23.49C41.6484 23.651 41.5717 23.7999 41.461 23.9219L36.2743 29.6242L39.5274 32.582L44.6907 26.9102C44.8015 26.7884 44.9424 26.698 45.0993 26.648C45.2561 26.598 45.4234 26.5902 45.5842 26.6253C45.7451 26.6605 45.8938 26.7374 46.0155 26.8483C46.1372 26.9592 46.2275 27.1001 46.2774 27.257L48.8836 35.4836L53.0766 34.157L50.4446 25.8461C50.3954 25.6896 50.3881 25.5229 50.4234 25.3627C50.4588 25.2025 50.5356 25.0543 50.6462 24.9331C50.7567 24.8119 50.8972 24.7218 51.0535 24.6718C51.2097 24.6219 51.3764 24.6138 51.5368 24.6484L58.7157 26.1906L59.6391 21.8898L52.5469 20.3664C52.3859 20.3318 52.2368 20.2553 52.1147 20.1448C51.9926 20.0342 51.9018 19.8934 51.8514 19.7366C51.8011 19.5797 51.7929 19.4124 51.8278 19.2514C51.8626 19.0904 51.9393 18.9415 52.0501 18.8195L56.8266 13.5695L53.5735 10.6094L48.7688 15.8898C48.6578 16.0116 48.5167 16.1019 48.3597 16.1517C48.2027 16.2016 48.0354 16.2092 47.8745 16.1738C47.7137 16.1384 47.565 16.0612 47.4434 15.9501C47.3218 15.8389 47.2317 15.6977 47.1821 15.5406L45.3165 9.64844ZM46.9149 24.2711C47.2909 24.282 47.6653 24.2173 48.0159 24.0809C48.3664 23.9445 48.6861 23.7391 48.9559 23.477C49.2257 23.2149 49.4402 22.9013 49.5867 22.5548C49.7331 22.2083 49.8086 21.8359 49.8086 21.4598C49.8086 21.0836 49.7331 20.7112 49.5867 20.3647C49.4402 20.0182 49.2257 19.7047 48.9559 19.4425C48.6861 19.1804 48.3664 18.9751 48.0159 18.8387C47.6653 18.7023 47.2909 18.6376 46.9149 18.6484C46.1833 18.6696 45.4888 18.975 44.9788 19.4999C44.4689 20.0249 44.1836 20.7279 44.1836 21.4598C44.1836 22.1916 44.4689 22.8947 44.9788 23.4196C45.4888 23.9445 46.1833 24.25 46.9149 24.2711Z" fill="#4D4259"/>
<path fill-rule="evenodd" clip-rule="evenodd" d="M45.3165 9.64844L41.1235 10.9773L42.9915 16.8789C43.041 17.0353 43.0487 17.202 43.0137 17.3624C42.9786 17.5227 42.9021 17.671 42.7918 17.7924C42.6814 17.9139 42.5412 18.0043 42.385 18.0546C42.2288 18.1049 42.0621 18.1132 41.9016 18.0789L34.5071 16.4898L33.5836 20.7906L40.9641 22.375C41.1252 22.4096 41.2742 22.4861 41.3963 22.5967C41.5184 22.7072 41.6092 22.848 41.6596 23.0048C41.71 23.1617 41.7181 23.329 41.6833 23.49C41.6484 23.651 41.5717 23.7999 41.461 23.9219L36.2743 29.6242L39.5274 32.582L44.6907 26.9102C44.8015 26.7884 44.9424 26.698 45.0993 26.648C45.2561 26.598 45.4234 26.5902 45.5842 26.6253C45.7451 26.6605 45.8938 26.7374 46.0155 26.8483C46.1372 26.9592 46.2275 27.1001 46.2774 27.257L48.8836 35.4836L53.0766 34.157L50.4446 25.8461C50.3954 25.6896 50.3881 25.5229 50.4234 25.3627C50.4588 25.2025 50.5356 25.0543 50.6462 24.9331C50.7567 24.8119 50.8972 24.7218 51.0535 24.6718C51.2097 24.6219 51.3764 24.6138 51.5368 24.6484L58.7157 26.1906L59.6391 21.8898L52.5469 20.3664C52.3859 20.3318 52.2368 20.2553 52.1147 20.1448C51.9926 20.0342 51.9018 19.8934 51.8514 19.7366C51.8011 19.5797 51.7929 19.4124 51.8278 19.2514C51.8626 19.0904 51.9393 18.9415 52.0501 18.8195L56.8266 13.5695L53.5735 10.6094L48.7688 15.8898C48.6578 16.0116 48.5167 16.1019 48.3597 16.1517C48.2027 16.2016 48.0354 16.2092 47.8745 16.1738C47.7137 16.1384 47.565 16.0612 47.4434 15.9501C47.3218 15.8389 47.2317 15.6977 47.1821 15.5406L45.3165 9.64844ZM46.9149 24.2711C47.2909 24.282 47.6653 24.2173 48.0159 24.0809C48.3664 23.9445 48.6861 23.7391 48.9559 23.477C49.2257 23.2149 49.4402 22.9013 49.5867 22.5548C49.7331 22.2083 49.8086 21.8359 49.8086 21.4598C49.8086 21.0836 49.7331 20.7112 49.5867 20.3647C49.4402 20.0182 49.2257 19.7047 48.9559 19.4425C48.6861 19.1804 48.3664 18.9751 48.0159 18.8387C47.6653 18.7023 47.2909 18.6376 46.9149 18.6484C46.1833 18.6696 45.4888 18.975 44.9788 19.4999C44.4689 20.0249 44.1836 20.7279 44.1836 21.4598C44.1836 22.1916 44.4689 22.8947 44.9788 23.4196C45.4888 23.9445 46.1833 24.25 46.9149 24.2711Z" fill="url(#paint0_radial_1078_4631)"/>
</g>
<g filter="url(#filter1_i_1078_4631)">
<path fill-rule="evenodd" clip-rule="evenodd" d="M11.8665 16.1906L9.08912 18.8156L12.7852 22.7273C12.8832 22.831 12.9523 22.9586 12.9856 23.0974C13.0188 23.2361 13.0151 23.3812 12.9748 23.5181C12.9345 23.6549 12.8589 23.7788 12.7558 23.8774C12.6526 23.9759 12.5254 24.0457 12.3868 24.0797L6.00006 25.6336L6.90475 29.3484L13.2797 27.7945C13.8891 27.6469 14.4305 28.2164 14.2524 28.8164L12.354 35.2383L16.0196 36.3234L17.9087 29.9297C17.9495 29.7926 18.0258 29.6687 18.1297 29.5703C18.2336 29.472 18.3616 29.4027 18.5007 29.3695C18.6399 29.3362 18.7853 29.3402 18.9225 29.3809C19.0596 29.4217 19.1836 29.4978 19.2821 29.6016L24.4337 35.0508L27.2133 32.4258L22.0102 26.9203C21.9128 26.8166 21.8442 26.6892 21.8113 26.5507C21.7784 26.4123 21.7823 26.2676 21.8225 26.1311C21.8628 25.9946 21.9381 25.8711 22.0409 25.7727C22.1438 25.6743 22.2705 25.6045 22.4087 25.5703L28.6079 24.0586L27.7032 20.3461L21.579 21.8391C21.4396 21.873 21.2938 21.8696 21.1562 21.8292C21.0186 21.7888 20.8941 21.7128 20.7952 21.609C20.6963 21.5051 20.6266 21.377 20.593 21.2376C20.5594 21.0982 20.5632 20.9523 20.604 20.8148L22.3524 14.9016L18.6868 13.8164L16.929 19.7672C16.8881 19.9043 16.8118 20.0282 16.7079 20.1265C16.604 20.2249 16.476 20.2941 16.3369 20.3274C16.1977 20.3606 16.0523 20.3567 15.9151 20.316C15.778 20.2752 15.654 20.1991 15.5555 20.0953L11.8665 16.1906ZM18.6493 27.0258C19.2327 26.7436 19.68 26.2412 19.893 25.6291C20.1059 25.0171 20.067 24.3455 19.7848 23.7621C19.5026 23.1787 19.0002 22.7314 18.3882 22.5184C17.7761 22.3055 17.1045 22.3444 16.5212 22.6266C15.9378 22.9088 15.4904 23.4112 15.2775 24.0232C15.172 24.3263 15.1273 24.6471 15.1458 24.9675C15.1644 25.2878 15.2459 25.6014 15.3856 25.8902C15.5253 26.1791 15.7206 26.4376 15.9602 26.651C16.1999 26.8644 16.4792 27.0285 16.7823 27.1339C17.3943 27.3469 18.0659 27.308 18.6493 27.0258Z" fill="#4D4259"/>
<path fill-rule="evenodd" clip-rule="evenodd" d="M11.8665 16.1906L9.08912 18.8156L12.7852 22.7273C12.8832 22.831 12.9523 22.9586 12.9856 23.0974C13.0188 23.2361 13.0151 23.3812 12.9748 23.5181C12.9345 23.6549 12.8589 23.7788 12.7558 23.8774C12.6526 23.9759 12.5254 24.0457 12.3868 24.0797L6.00006 25.6336L6.90475 29.3484L13.2797 27.7945C13.8891 27.6469 14.4305 28.2164 14.2524 28.8164L12.354 35.2383L16.0196 36.3234L17.9087 29.9297C17.9495 29.7926 18.0258 29.6687 18.1297 29.5703C18.2336 29.472 18.3616 29.4027 18.5007 29.3695C18.6399 29.3362 18.7853 29.3402 18.9225 29.3809C19.0596 29.4217 19.1836 29.4978 19.2821 29.6016L24.4337 35.0508L27.2133 32.4258L22.0102 26.9203C21.9128 26.8166 21.8442 26.6892 21.8113 26.5507C21.7784 26.4123 21.7823 26.2676 21.8225 26.1311C21.8628 25.9946 21.9381 25.8711 22.0409 25.7727C22.1438 25.6743 22.2705 25.6045 22.4087 25.5703L28.6079 24.0586L27.7032 20.3461L21.579 21.8391C21.4396 21.873 21.2938 21.8696 21.1562 21.8292C21.0186 21.7888 20.8941 21.7128 20.7952 21.609C20.6963 21.5051 20.6266 21.377 20.593 21.2376C20.5594 21.0982 20.5632 20.9523 20.604 20.8148L22.3524 14.9016L18.6868 13.8164L16.929 19.7672C16.8881 19.9043 16.8118 20.0282 16.7079 20.1265C16.604 20.2249 16.476 20.2941 16.3369 20.3274C16.1977 20.3606 16.0523 20.3567 15.9151 20.316C15.778 20.2752 15.654 20.1991 15.5555 20.0953L11.8665 16.1906ZM18.6493 27.0258C19.2327 26.7436 19.68 26.2412 19.893 25.6291C20.1059 25.0171 20.067 24.3455 19.7848 23.7621C19.5026 23.1787 19.0002 22.7314 18.3882 22.5184C17.7761 22.3055 17.1045 22.3444 16.5212 22.6266C15.9378 22.9088 15.4904 23.4112 15.2775 24.0232C15.172 24.3263 15.1273 24.6471 15.1458 24.9675C15.1644 25.2878 15.2459 25.6014 15.3856 25.8902C15.5253 26.1791 15.7206 26.4376 15.9602 26.651C16.1999 26.8644 16.4792 27.0285 16.7823 27.1339C17.3943 27.3469 18.0659 27.308 18.6493 27.0258Z" fill="url(#paint1_radial_1078_4631)"/>
</g>
<g filter="url(#filter2_i_1078_4631)">
<path d="M59.7376 21.4594C59.7376 24.8602 58.3866 28.1216 55.9819 30.5264C53.5772 32.9311 50.3157 34.282 46.9149 34.282C43.5141 34.282 40.2526 32.9311 37.8479 30.5264C35.4432 28.1216 34.0923 24.8602 34.0923 21.4594C34.0923 18.0586 35.4432 14.7971 37.8479 12.3924C40.2526 9.98767 43.5141 8.63672 46.9149 8.63672C50.3157 8.63672 53.5772 9.98767 55.9819 12.3924C58.3866 14.7971 59.7376 18.0586 59.7376 21.4594Z" stroke="#A6A1AB" stroke-width="0.65"/>
</g>
<g filter="url(#filter3_i_1078_4631)">
<path d="M17.3696 36.0375C23.5867 36.0375 28.6266 30.9976 28.6266 24.7805C28.6266 18.5634 23.5867 13.5234 17.3696 13.5234C11.1525 13.5234 6.11255 18.5634 6.11255 24.7805C6.11255 30.9976 11.1525 36.0375 17.3696 36.0375Z" stroke="#A6A1AB" stroke-width="0.65"/>
<path d="M17.3696 36.0375C23.5867 36.0375 28.6266 30.9976 28.6266 24.7805C28.6266 18.5634 23.5867 13.5234 17.3696 13.5234C11.1525 13.5234 6.11255 18.5634 6.11255 24.7805C6.11255 30.9976 11.1525 36.0375 17.3696 36.0375Z" stroke="url(#paint2_radial_1078_4631)" stroke-width="0.65"/>
</g>
<g filter="url(#filter4_f_1078_4631)">
<path d="M47.4376 33.6172C54.5116 33.6172 60.2462 27.8826 60.2462 20.8086C60.2462 13.7346 54.5116 8 47.4376 8C40.3636 8 34.629 13.7346 34.629 20.8086C34.629 27.8826 40.3636 33.6172 47.4376 33.6172Z" stroke="url(#paint3_linear_1078_4631)" stroke-width="0.125"/>
<path d="M47.4376 33.6172C54.5116 33.6172 60.2462 27.8826 60.2462 20.8086C60.2462 13.7346 54.5116 8 47.4376 8C40.3636 8 34.629 13.7346 34.629 20.8086C34.629 27.8826 40.3636 33.6172 47.4376 33.6172Z" stroke="url(#paint4_linear_1078_4631)" stroke-width="0.125"/>
</g>
<g filter="url(#filter5_f_1078_4631)">
<path d="M17.993 35.482C24.2023 35.482 29.236 30.4484 29.236 24.2391C29.236 18.0297 24.2023 12.9961 17.993 12.9961C11.7837 12.9961 6.75006 18.0297 6.75006 24.2391C6.75006 30.4484 11.7837 35.482 17.993 35.482Z" stroke="url(#paint5_linear_1078_4631)" stroke-width="0.125"/>
<path d="M17.993 35.482C24.2023 35.482 29.236 30.4484 29.236 24.2391C29.236 18.0297 24.2023 12.9961 17.993 12.9961C11.7837 12.9961 6.75006 18.0297 6.75006 24.2391C6.75006 30.4484 11.7837 35.482 17.993 35.482Z" stroke="url(#paint6_linear_1078_4631)" stroke-width="0.125"/>
</g>
<g filter="url(#filter6_iiii_1078_4631)">
<path d="M13.4508 36.3047C13.4508 33.5859 15.654 31.3828 18.3727 31.3828H47.8618C50.5805 31.3828 52.7836 33.5859 52.7836 36.3047V55.7203C52.7836 57.0257 52.2651 58.2776 51.3421 59.2006C50.419 60.1236 49.1671 60.6422 47.8618 60.6422H18.3704C17.065 60.6422 15.8131 60.1236 14.8901 59.2006C13.967 58.2776 13.4485 57.0257 13.4485 55.7203L13.4508 36.3047Z" fill="url(#paint7_linear_1078_4631)"/>
</g>
<path d="M13.4508 36.3047C13.4508 33.5859 15.654 31.3828 18.3727 31.3828H47.8618C50.5805 31.3828 52.7836 33.5859 52.7836 36.3047V55.7203C52.7836 57.0257 52.2651 58.2776 51.3421 59.2006C50.419 60.1236 49.1671 60.6422 47.8618 60.6422H18.3704C17.065 60.6422 15.8131 60.1236 14.8901 59.2006C13.967 58.2776 13.4485 57.0257 13.4485 55.7203L13.4508 36.3047Z" fill="url(#paint8_linear_1078_4631)"/>
<path d="M13.4508 36.3047C13.4508 33.5859 15.654 31.3828 18.3727 31.3828H47.8618C50.5805 31.3828 52.7836 33.5859 52.7836 36.3047V55.7203C52.7836 57.0257 52.2651 58.2776 51.3421 59.2006C50.419 60.1236 49.1671 60.6422 47.8618 60.6422H18.3704C17.065 60.6422 15.8131 60.1236 14.8901 59.2006C13.967 58.2776 13.4485 57.0257 13.4485 55.7203L13.4508 36.3047Z" fill="url(#paint9_linear_1078_4631)"/>
<path d="M18.3586 44.1914C18.3586 43.893 18.4772 43.6069 18.6881 43.3959C18.8991 43.1849 19.1853 43.0664 19.4836 43.0664H30.436C30.7344 43.0664 31.0205 43.1849 31.2315 43.3959C31.4425 43.6069 31.561 43.893 31.561 44.1914C31.561 44.4898 31.4425 44.7759 31.2315 44.9869C31.0205 45.1979 30.7344 45.3164 30.436 45.3164H19.486C19.1876 45.3164 18.9015 45.1979 18.6905 44.9869C18.4795 44.7759 18.3586 44.4898 18.3586 44.1914Z" fill="url(#paint10_linear_1078_4631)"/>
<path d="M18.3586 48.3848C18.3586 48.0864 18.4772 47.8002 18.6881 47.5893C18.8991 47.3783 19.1853 47.2598 19.4836 47.2598H30.436C30.7344 47.2598 31.0205 47.3783 31.2315 47.5893C31.4425 47.8002 31.561 48.0864 31.561 48.3848C31.561 48.6831 31.4425 48.9693 31.2315 49.1803C31.0205 49.3912 30.7344 49.5098 30.436 49.5098H19.486C19.1876 49.5098 18.9015 49.3912 18.6905 49.1803C18.4795 48.9693 18.3586 48.6831 18.3586 48.3848Z" fill="url(#paint11_linear_1078_4631)"/>
<path d="M18.3586 52.5781C18.3586 52.2798 18.4772 51.9936 18.6881 51.7826C18.8991 51.5717 19.1853 51.4531 19.4836 51.4531H30.436C30.7344 51.4531 31.0205 51.5717 31.2315 51.7826C31.4425 51.9936 31.561 52.2798 31.561 52.5781C31.561 52.8765 31.4425 53.1626 31.2315 53.3736C31.0205 53.5846 30.7344 53.7031 30.436 53.7031H19.486C19.1876 53.7031 18.9015 53.5846 18.6905 53.3736C18.4795 53.1626 18.3586 52.8765 18.3586 52.5781Z" fill="url(#paint12_linear_1078_4631)"/>
<g filter="url(#filter7_d_1078_4631)">
<path d="M45.8157 40.8602C47.1761 40.8602 48.279 39.7573 48.279 38.3969C48.279 37.0364 47.1761 35.9336 45.8157 35.9336C44.4553 35.9336 43.3524 37.0364 43.3524 38.3969C43.3524 39.7573 44.4553 40.8602 45.8157 40.8602Z" fill="url(#paint13_linear_1078_4631)"/>
<path d="M45.8157 40.8602C47.1761 40.8602 48.279 39.7573 48.279 38.3969C48.279 37.0364 47.1761 35.9336 45.8157 35.9336C44.4553 35.9336 43.3524 37.0364 43.3524 38.3969C43.3524 39.7573 44.4553 40.8602 45.8157 40.8602Z" fill="url(#paint14_radial_1078_4631)"/>
</g>
<g filter="url(#filter8_f_1078_4631)">
<path d="M45.8157 40.2805C46.8564 40.2805 47.7001 39.4368 47.7001 38.3961C47.7001 37.3554 46.8564 36.5117 45.8157 36.5117C44.775 36.5117 43.9313 37.3554 43.9313 38.3961C43.9313 39.4368 44.775 40.2805 45.8157 40.2805Z" fill="#E1D7EB"/>
</g>
<g filter="url(#filter9_d_1078_4631)">
<path d="M45.8157 54.2254C47.1761 54.2254 48.279 53.1225 48.279 51.7621C48.279 50.4017 47.1761 49.2988 45.8157 49.2988C44.4553 49.2988 43.3524 50.4017 43.3524 51.7621C43.3524 53.1225 44.4553 54.2254 45.8157 54.2254Z" fill="url(#paint15_linear_1078_4631)"/>
<path d="M45.8157 54.2254C47.1761 54.2254 48.279 53.1225 48.279 51.7621C48.279 50.4017 47.1761 49.2988 45.8157 49.2988C44.4553 49.2988 43.3524 50.4017 43.3524 51.7621C43.3524 53.1225 44.4553 54.2254 45.8157 54.2254Z" fill="url(#paint16_radial_1078_4631)"/>
</g>
<g filter="url(#filter10_f_1078_4631)">
<path d="M45.8157 53.6125C46.837 53.6125 47.6649 52.7846 47.6649 51.7633C47.6649 50.742 46.837 49.9141 45.8157 49.9141C44.7944 49.9141 43.9665 50.742 43.9665 51.7633C43.9665 52.7846 44.7944 53.6125 45.8157 53.6125Z" fill="#F4396B"/>
<path d="M45.8157 53.6125C46.837 53.6125 47.6649 52.7846 47.6649 51.7633C47.6649 50.742 46.837 49.9141 45.8157 49.9141C44.7944 49.9141 43.9665 50.742 43.9665 51.7633C43.9665 52.7846 44.7944 53.6125 45.8157 53.6125Z" fill="url(#paint17_radial_1078_4631)"/>
</g>
<path d="M52.7837 39.3125H58.7157V52.55H52.7837V39.3125Z" fill="url(#paint18_linear_1078_4631)"/>
<path d="M52.7837 39.3125H58.7157V52.55H52.7837V39.3125Z" fill="url(#paint19_linear_1078_4631)"/>
<path d="M52.7837 39.3125H58.7157V52.55H52.7837V39.3125Z" fill="url(#paint20_linear_1078_4631)"/>
<g filter="url(#filter11_i_1078_4631)">
<path d="M69.7009 34.0629C69.7009 33.8233 69.6397 33.5875 69.5231 33.3782C69.4065 33.1688 69.2383 32.9927 69.0345 32.8666C68.8306 32.7405 68.598 32.6686 68.3586 32.6577C68.1191 32.6468 67.8809 32.6973 67.6665 32.8043L60.0118 36.6317C59.6222 36.8264 59.2945 37.1258 59.0656 37.4963C58.8367 37.8668 58.7155 38.2938 58.7157 38.7293V53.3707C58.7155 53.8018 58.8341 54.2247 59.0587 54.5927C59.2832 54.9607 59.6049 55.2597 59.9884 55.4567L67.6524 59.3918C67.8668 59.5019 68.1059 59.555 68.3468 59.5461C68.5876 59.5371 68.8221 59.4664 69.0278 59.3408C69.2334 59.2151 69.4034 59.0387 69.5212 58.8285C69.6391 58.6183 69.7009 58.3813 69.7009 58.1403V34.0629Z" fill="url(#paint21_linear_1078_4631)"/>
<path d="M69.7009 34.0629C69.7009 33.8233 69.6397 33.5875 69.5231 33.3782C69.4065 33.1688 69.2383 32.9927 69.0345 32.8666C68.8306 32.7405 68.598 32.6686 68.3586 32.6577C68.1191 32.6468 67.8809 32.6973 67.6665 32.8043L60.0118 36.6317C59.6222 36.8264 59.2945 37.1258 59.0656 37.4963C58.8367 37.8668 58.7155 38.2938 58.7157 38.7293V53.3707C58.7155 53.8018 58.8341 54.2247 59.0587 54.5927C59.2832 54.9607 59.6049 55.2597 59.9884 55.4567L67.6524 59.3918C67.8668 59.5019 68.1059 59.555 68.3468 59.5461C68.5876 59.5371 68.8221 59.4664 69.0278 59.3408C69.2334 59.2151 69.4034 59.0387 69.5212 58.8285C69.6391 58.6183 69.7009 58.3813 69.7009 58.1403V34.0629Z" fill="url(#paint22_linear_1078_4631)"/>
<path d="M69.7009 34.0629C69.7009 33.8233 69.6397 33.5875 69.5231 33.3782C69.4065 33.1688 69.2383 32.9927 69.0345 32.8666C68.8306 32.7405 68.598 32.6686 68.3586 32.6577C68.1191 32.6468 67.8809 32.6973 67.6665 32.8043L60.0118 36.6317C59.6222 36.8264 59.2945 37.1258 59.0656 37.4963C58.8367 37.8668 58.7155 38.2938 58.7157 38.7293V53.3707C58.7155 53.8018 58.8341 54.2247 59.0587 54.5927C59.2832 54.9607 59.6049 55.2597 59.9884 55.4567L67.6524 59.3918C67.8668 59.5019 68.1059 59.555 68.3468 59.5461C68.5876 59.5371 68.8221 59.4664 69.0278 59.3408C69.2334 59.2151 69.4034 59.0387 69.5212 58.8285C69.6391 58.6183 69.7009 58.3813 69.7009 58.1403V34.0629Z" fill="url(#paint23_radial_1078_4631)"/>
</g>
<g filter="url(#filter12_f_1078_4631)">
<path d="M30.4594 43.9297H19.3805C19.1656 43.9297 18.9915 44.1039 18.9915 44.3188C18.9915 44.5336 19.1656 44.7078 19.3805 44.7078H30.4594C30.6743 44.7078 30.8485 44.5336 30.8485 44.3188C30.8485 44.1039 30.6743 43.9297 30.4594 43.9297Z" fill="#4A3E56"/>
<path d="M30.4594 43.9297H19.3805C19.1656 43.9297 18.9915 44.1039 18.9915 44.3188C18.9915 44.5336 19.1656 44.7078 19.3805 44.7078H30.4594C30.6743 44.7078 30.8485 44.5336 30.8485 44.3188C30.8485 44.1039 30.6743 43.9297 30.4594 43.9297Z" stroke="url(#paint24_radial_1078_4631)" stroke-width="0.05"/>
</g>
<g filter="url(#filter13_f_1078_4631)">
<path d="M30.4594 48.2754H19.3805C19.1656 48.2754 18.9915 48.4496 18.9915 48.6645C18.9915 48.8793 19.1656 49.0535 19.3805 49.0535H30.4594C30.6743 49.0535 30.8485 48.8793 30.8485 48.6645C30.8485 48.4496 30.6743 48.2754 30.4594 48.2754Z" fill="#4A3E56"/>
<path d="M30.4594 48.2754H19.3805C19.1656 48.2754 18.9915 48.4496 18.9915 48.6645C18.9915 48.8793 19.1656 49.0535 19.3805 49.0535H30.4594C30.6743 49.0535 30.8485 48.8793 30.8485 48.6645C30.8485 48.4496 30.6743 48.2754 30.4594 48.2754Z" stroke="url(#paint25_radial_1078_4631)" stroke-width="0.05"/>
</g>
<g filter="url(#filter14_f_1078_4631)">
<path d="M30.4594 52.4004H19.3805C19.1656 52.4004 18.9915 52.5746 18.9915 52.7895C18.9915 53.0043 19.1656 53.1785 19.3805 53.1785H30.4594C30.6743 53.1785 30.8485 53.0043 30.8485 52.7895C30.8485 52.5746 30.6743 52.4004 30.4594 52.4004Z" fill="#4A3E56"/>
<path d="M30.4594 52.4004H19.3805C19.1656 52.4004 18.9915 52.5746 18.9915 52.7895C18.9915 53.0043 19.1656 53.1785 19.3805 53.1785H30.4594C30.6743 53.1785 30.8485 53.0043 30.8485 52.7895C30.8485 52.5746 30.6743 52.4004 30.4594 52.4004Z" stroke="url(#paint26_radial_1078_4631)" stroke-width="0.05"/>
</g>
<g filter="url(#filter15_f_1078_4631)">
<path d="M11.5665 17.1191L15.0329 20.7449C15.2185 20.9393 15.4675 21.0607 15.7349 21.0874C16.0023 21.1141 16.2704 21.0441 16.4907 20.8902" stroke="url(#paint27_linear_1078_4631)" stroke-width="0.1" stroke-linecap="round"/>
</g>
<g filter="url(#filter16_f_1078_4631)">
<path d="M44.7563 11.0566L46.5024 16.4426C46.5024 16.7895 47.161 17.2863 47.6743 16.9559" stroke="url(#paint28_linear_1078_4631)" stroke-width="0.15" stroke-linecap="round"/>
</g>
<g filter="url(#filter17_f_1078_4631)">
<path d="M21.2157 26.457C21.1688 26.5977 21.1688 26.9914 21.5626 27.4461C21.961 27.9008 23.7798 29.8203 24.6399 30.725" stroke="url(#paint29_linear_1078_4631)" stroke-width="0.1" stroke-linecap="round"/>
</g>
<g filter="url(#filter18_f_1078_4631)">
<path d="M17.5993 28.0516C19.3739 28.0516 20.8125 26.6129 20.8125 24.8383C20.8125 23.0636 19.3739 21.625 17.5993 21.625C15.8246 21.625 14.386 23.0636 14.386 24.8383C14.386 26.6129 15.8246 28.0516 17.5993 28.0516Z" stroke="url(#paint30_linear_1078_4631)" stroke-width="0.1" stroke-linecap="round"/>
<path d="M17.5993 28.0516C19.3739 28.0516 20.8125 26.6129 20.8125 24.8383C20.8125 23.0636 19.3739 21.625 17.5993 21.625C15.8246 21.625 14.386 23.0636 14.386 24.8383C14.386 26.6129 15.8246 28.0516 17.5993 28.0516Z" stroke="url(#paint31_linear_1078_4631)" stroke-width="0.1" stroke-linecap="round"/>
</g>
<g filter="url(#filter19_f_1078_4631)">
<path d="M46.8868 24.9945C48.8388 24.9945 50.4212 23.4121 50.4212 21.4602C50.4212 19.5082 48.8388 17.9258 46.8868 17.9258C44.9348 17.9258 43.3524 19.5082 43.3524 21.4602C43.3524 23.4121 44.9348 24.9945 46.8868 24.9945Z" stroke="url(#paint32_linear_1078_4631)" stroke-width="0.1" stroke-linecap="round"/>
<path d="M46.8868 24.9945C48.8388 24.9945 50.4212 23.4121 50.4212 21.4602C50.4212 19.5082 48.8388 17.9258 46.8868 17.9258C44.9348 17.9258 43.3524 19.5082 43.3524 21.4602C43.3524 23.4121 44.9348 24.9945 46.8868 24.9945Z" stroke="url(#paint33_linear_1078_4631)" stroke-width="0.1" stroke-linecap="round"/>
</g>
<g filter="url(#filter20_f_1078_4631)">
<path d="M21.1782 16.1484L19.4579 21.9703" stroke="url(#paint34_linear_1078_4631)" stroke-width="0.1" stroke-linecap="round"/>
</g>
<g filter="url(#filter21_f_1078_4631)">
<path d="M49.561 25.6699L51.3188 31.384" stroke="url(#paint35_linear_1078_4631)" stroke-width="0.15" stroke-linecap="round"/>
</g>
<g filter="url(#filter22_f_1078_4631)">
<path d="M51.0258 19.7031C51.0024 20.1039 51.2954 20.9758 52.6735 21.2406C54.0493 21.5031 56.4704 22.0094 57.5063 22.2297" stroke="url(#paint36_linear_1078_4631)" stroke-width="0.15" stroke-linecap="round"/>
</g>
<g filter="url(#filter23_f_1078_4631)">
<path d="M36.7805 17.832L43.0782 19.2992" stroke="url(#paint37_linear_1078_4631)" stroke-width="0.15" stroke-linecap="round"/>
</g>
</g>
<defs>
<filter id="filter0_i_1078_4631" x="33.5836" y="9.64844" width="26.0555" height="26.0859" filterUnits="userSpaceOnUse" color-interpolation-filters="sRGB">
<feFlood flood-opacity="0" result="BackgroundImageFix"/>
<feBlend mode="normal" in="SourceGraphic" in2="BackgroundImageFix" result="shape"/>
<feColorMatrix in="SourceAlpha" type="matrix" values="0 0 0 0 0 0 0 0 0 0 0 0 0 0 0 0 0 0 127 0" result="hardAlpha"/>
<feOffset dy="0.25"/>
<feGaussianBlur stdDeviation="0.125"/>
<feComposite in2="hardAlpha" operator="arithmetic" k2="-1" k3="1"/>
<feColorMatrix type="matrix" values="0 0 0 0 0.239216 0 0 0 0 0.2 0 0 0 0 0.282353 0 0 0 1 0"/>
<feBlend mode="normal" in2="shape" result="effect1_innerShadow_1078_4631"/>
</filter>
<filter id="filter1_i_1078_4631" x="6.00006" y="13.8164" width="22.6078" height="22.7578" filterUnits="userSpaceOnUse" color-interpolation-filters="sRGB">
<feFlood flood-opacity="0" result="BackgroundImageFix"/>
<feBlend mode="normal" in="SourceGraphic" in2="BackgroundImageFix" result="shape"/>
<feColorMatrix in="SourceAlpha" type="matrix" values="0 0 0 0 0 0 0 0 0 0 0 0 0 0 0 0 0 0 127 0" result="hardAlpha"/>
<feOffset dy="0.25"/>
<feGaussianBlur stdDeviation="0.125"/>
<feComposite in2="hardAlpha" operator="arithmetic" k2="-1" k3="1"/>
<feColorMatrix type="matrix" values="0 0 0 0 0.239216 0 0 0 0 0.2 0 0 0 0 0.282353 0 0 0 1 0"/>
<feBlend mode="normal" in2="shape" result="effect1_innerShadow_1078_4631"/>
</filter>
<filter id="filter2_i_1078_4631" x="33.7672" y="8.1875" width="26.2953" height="26.4199" filterUnits="userSpaceOnUse" color-interpolation-filters="sRGB">
<feFlood flood-opacity="0" result="BackgroundImageFix"/>
<feBlend mode="normal" in="SourceGraphic" in2="BackgroundImageFix" result="shape"/>
<feColorMatrix in="SourceAlpha" type="matrix" values="0 0 0 0 0 0 0 0 0 0 0 0 0 0 0 0 0 0 127 0" result="hardAlpha"/>
<feOffset dy="-0.125"/>
<feGaussianBlur stdDeviation="0.0625"/>
<feComposite in2="hardAlpha" operator="arithmetic" k2="-1" k3="1"/>
<feColorMatrix type="matrix" values="0 0 0 0 0.588235 0 0 0 0 0.560784 0 0 0 0 0.615686 0 0 0 1 0"/>
<feBlend mode="normal" in2="shape" result="effect1_innerShadow_1078_4631"/>
</filter>
<filter id="filter3_i_1078_4631" x="5.78754" y="13.0742" width="23.1641" height="23.2891" filterUnits="userSpaceOnUse" color-interpolation-filters="sRGB">
<feFlood flood-opacity="0" result="BackgroundImageFix"/>
<feBlend mode="normal" in="SourceGraphic" in2="BackgroundImageFix" result="shape"/>
<feColorMatrix in="SourceAlpha" type="matrix" values="0 0 0 0 0 0 0 0 0 0 0 0 0 0 0 0 0 0 127 0" result="hardAlpha"/>
<feOffset dy="-0.125"/>
<feGaussianBlur stdDeviation="0.0625"/>
<feComposite in2="hardAlpha" operator="arithmetic" k2="-1" k3="1"/>
<feColorMatrix type="matrix" values="0 0 0 0 0.588235 0 0 0 0 0.560784 0 0 0 0 0.615686 0 0 0 1 0"/>
<feBlend mode="normal" in2="shape" result="effect1_innerShadow_1078_4631"/>
</filter>
<filter id="filter4_f_1078_4631" x="34.4415" y="7.8125" width="25.9922" height="25.9922" filterUnits="userSpaceOnUse" color-interpolation-filters="sRGB">
<feFlood flood-opacity="0" result="BackgroundImageFix"/>
<feBlend mode="normal" in="SourceGraphic" in2="BackgroundImageFix" result="shape"/>
<feGaussianBlur stdDeviation="0.0625" result="effect1_foregroundBlur_1078_4631"/>
</filter>
<filter id="filter5_f_1078_4631" x="6.56256" y="12.8086" width="22.8609" height="22.8613" filterUnits="userSpaceOnUse" color-interpolation-filters="sRGB">
<feFlood flood-opacity="0" result="BackgroundImageFix"/>
<feBlend mode="normal" in="SourceGraphic" in2="BackgroundImageFix" result="shape"/>
<feGaussianBlur stdDeviation="0.0625" result="effect1_foregroundBlur_1078_4631"/>
</filter>
<filter id="filter6_iiii_1078_4631" x="13.0735" y="31.0078" width="40.0851" height="30.0098" filterUnits="userSpaceOnUse" color-interpolation-filters="sRGB">
<feFlood flood-opacity="0" result="BackgroundImageFix"/>
<feBlend mode="normal" in="SourceGraphic" in2="BackgroundImageFix" result="shape"/>
<feColorMatrix in="SourceAlpha" type="matrix" values="0 0 0 0 0 0 0 0 0 0 0 0 0 0 0 0 0 0 127 0" result="hardAlpha"/>
<feOffset dx="-0.375" dy="0.375"/>
<feGaussianBlur stdDeviation="0.25"/>
<feComposite in2="hardAlpha" operator="arithmetic" k2="-1" k3="1"/>
<feColorMatrix type="matrix" values="0 0 0 0 0.870588 0 0 0 0 0.862745 0 0 0 0 0.882353 0 0 0 1 0"/>
<feBlend mode="normal" in2="shape" result="effect1_innerShadow_1078_4631"/>
<feColorMatrix in="SourceAlpha" type="matrix" values="0 0 0 0 0 0 0 0 0 0 0 0 0 0 0 0 0 0 127 0" result="hardAlpha"/>
<feOffset dx="-0.075" dy="0.075"/>
<feGaussianBlur stdDeviation="0.125"/>
<feComposite in2="hardAlpha" operator="arithmetic" k2="-1" k3="1"/>
<feColorMatrix type="matrix" values="0 0 0 0 0.74902 0 0 0 0 0.741176 0 0 0 0 0.756863 0 0 0 1 0"/>
<feBlend mode="normal" in2="effect1_innerShadow_1078_4631" result="effect2_innerShadow_1078_4631"/>
<feColorMatrix in="SourceAlpha" type="matrix" values="0 0 0 0 0 0 0 0 0 0 0 0 0 0 0 0 0 0 127 0" result="hardAlpha"/>
<feOffset dx="0.375" dy="-0.375"/>
<feGaussianBlur stdDeviation="0.375"/>
<feComposite in2="hardAlpha" operator="arithmetic" k2="-1" k3="1"/>
<feColorMatrix type="matrix" values="0 0 0 0 0.690196 0 0 0 0 0.635294 0 0 0 0 0.745098 0 0 0 1 0"/>
<feBlend mode="normal" in2="effect2_innerShadow_1078_4631" result="effect3_innerShadow_1078_4631"/>
<feColorMatrix in="SourceAlpha" type="matrix" values="0 0 0 0 0 0 0 0 0 0 0 0 0 0 0 0 0 0 127 0" result="hardAlpha"/>
<feOffset dy="-0.125"/>
<feGaussianBlur stdDeviation="0.125"/>
<feComposite in2="hardAlpha" operator="arithmetic" k2="-1" k3="1"/>
<feColorMatrix type="matrix" values="0 0 0 0 0.698039 0 0 0 0 0.52549 0 0 0 0 0.847059 0 0 0 1 0"/>
<feBlend mode="normal" in2="effect3_innerShadow_1078_4631" result="effect4_innerShadow_1078_4631"/>
</filter>
<filter id="filter7_d_1078_4631" x="42.9524" y="35.7336" width="5.52657" height="5.52578" filterUnits="userSpaceOnUse" color-interpolation-filters="sRGB">
<feFlood flood-opacity="0" result="BackgroundImageFix"/>
<feColorMatrix in="SourceAlpha" type="matrix" values="0 0 0 0 0 0 0 0 0 0 0 0 0 0 0 0 0 0 127 0" result="hardAlpha"/>
<feOffset dx="-0.1" dy="0.1"/>
<feGaussianBlur stdDeviation="0.15"/>
<feComposite in2="hardAlpha" operator="out"/>
<feColorMatrix type="matrix" values="0 0 0 0 0.666667 0 0 0 0 0.611765 0 0 0 0 0.72549 0 0 0 1 0"/>
<feBlend mode="normal" in2="BackgroundImageFix" result="effect1_dropShadow_1078_4631"/>
<feBlend mode="normal" in="SourceGraphic" in2="effect1_dropShadow_1078_4631" result="shape"/>
</filter>
<filter id="filter8_f_1078_4631" x="43.8313" y="36.4117" width="3.96874" height="3.96953" filterUnits="userSpaceOnUse" color-interpolation-filters="sRGB">
<feFlood flood-opacity="0" result="BackgroundImageFix"/>
<feBlend mode="normal" in="SourceGraphic" in2="BackgroundImageFix" result="shape"/>
<feGaussianBlur stdDeviation="0.05" result="effect1_foregroundBlur_1078_4631"/>
</filter>
<filter id="filter9_d_1078_4631" x="42.9524" y="49.0988" width="5.52657" height="5.52578" filterUnits="userSpaceOnUse" color-interpolation-filters="sRGB">
<feFlood flood-opacity="0" result="BackgroundImageFix"/>
<feColorMatrix in="SourceAlpha" type="matrix" values="0 0 0 0 0 0 0 0 0 0 0 0 0 0 0 0 0 0 127 0" result="hardAlpha"/>
<feOffset dx="-0.1" dy="0.1"/>
<feGaussianBlur stdDeviation="0.15"/>
<feComposite in2="hardAlpha" operator="out"/>
<feColorMatrix type="matrix" values="0 0 0 0 0.666667 0 0 0 0 0.611765 0 0 0 0 0.72549 0 0 0 1 0"/>
<feBlend mode="normal" in2="BackgroundImageFix" result="effect1_dropShadow_1078_4631"/>
<feBlend mode="normal" in="SourceGraphic" in2="effect1_dropShadow_1078_4631" result="shape"/>
</filter>
<filter id="filter10_f_1078_4631" x="43.8665" y="49.8141" width="3.89843" height="3.89922" filterUnits="userSpaceOnUse" color-interpolation-filters="sRGB">
<feFlood flood-opacity="0" result="BackgroundImageFix"/>
<feBlend mode="normal" in="SourceGraphic" in2="BackgroundImageFix" result="shape"/>
<feGaussianBlur stdDeviation="0.05" result="effect1_foregroundBlur_1078_4631"/>
</filter>
<filter id="filter11_i_1078_4631" x="58.7157" y="32.6562" width="10.9852" height="27.1406" filterUnits="userSpaceOnUse" color-interpolation-filters="sRGB">
<feFlood flood-opacity="0" result="BackgroundImageFix"/>
<feBlend mode="normal" in="SourceGraphic" in2="BackgroundImageFix" result="shape"/>
<feColorMatrix in="SourceAlpha" type="matrix" values="0 0 0 0 0 0 0 0 0 0 0 0 0 0 0 0 0 0 127 0" result="hardAlpha"/>
<feOffset dy="0.25"/>
<feGaussianBlur stdDeviation="0.125"/>
<feComposite in2="hardAlpha" operator="arithmetic" k2="-1" k3="1"/>
<feColorMatrix type="matrix" values="0 0 0 0 0.27451 0 0 0 0 0.270588 0 0 0 0 0.282353 0 0 0 1 0"/>
<feBlend mode="normal" in2="shape" result="effect1_innerShadow_1078_4631"/>
</filter>
<filter id="filter12_f_1078_4631" x="18.9165" y="43.8543" width="12.007" height="0.928125" filterUnits="userSpaceOnUse" color-interpolation-filters="sRGB">
<feFlood flood-opacity="0" result="BackgroundImageFix"/>
<feBlend mode="normal" in="SourceGraphic" in2="BackgroundImageFix" result="shape"/>
<feGaussianBlur stdDeviation="0.025" result="effect1_foregroundBlur_1078_4631"/>
</filter>
<filter id="filter13_f_1078_4631" x="18.9165" y="48.2" width="12.007" height="0.928125" filterUnits="userSpaceOnUse" color-interpolation-filters="sRGB">
<feFlood flood-opacity="0" result="BackgroundImageFix"/>
<feBlend mode="normal" in="SourceGraphic" in2="BackgroundImageFix" result="shape"/>
<feGaussianBlur stdDeviation="0.025" result="effect1_foregroundBlur_1078_4631"/>
</filter>
<filter id="filter14_f_1078_4631" x="18.9165" y="52.325" width="12.007" height="0.928125" filterUnits="userSpaceOnUse" color-interpolation-filters="sRGB">
<feFlood flood-opacity="0" result="BackgroundImageFix"/>
<feBlend mode="normal" in="SourceGraphic" in2="BackgroundImageFix" result="shape"/>
<feGaussianBlur stdDeviation="0.025" result="effect1_foregroundBlur_1078_4631"/>
</filter>
<filter id="filter15_f_1078_4631" x="11.4165" y="16.9684" width="5.2242" height="4.27422" filterUnits="userSpaceOnUse" color-interpolation-filters="sRGB">
<feFlood flood-opacity="0" result="BackgroundImageFix"/>
<feBlend mode="normal" in="SourceGraphic" in2="BackgroundImageFix" result="shape"/>
<feGaussianBlur stdDeviation="0.05" result="effect1_foregroundBlur_1078_4631"/>
</filter>
<filter id="filter16_f_1078_4631" x="44.5313" y="10.8324" width="3.36799" height="6.45625" filterUnits="userSpaceOnUse" color-interpolation-filters="sRGB">
<feFlood flood-opacity="0" result="BackgroundImageFix"/>
<feBlend mode="normal" in="SourceGraphic" in2="BackgroundImageFix" result="shape"/>
<feGaussianBlur stdDeviation="0.075" result="effect1_foregroundBlur_1078_4631"/>
</filter>
<filter id="filter17_f_1078_4631" x="21.0447" y="26.3062" width="3.74523" height="4.56914" filterUnits="userSpaceOnUse" color-interpolation-filters="sRGB">
<feFlood flood-opacity="0" result="BackgroundImageFix"/>
<feBlend mode="normal" in="SourceGraphic" in2="BackgroundImageFix" result="shape"/>
<feGaussianBlur stdDeviation="0.05" result="effect1_foregroundBlur_1078_4631"/>
</filter>
<filter id="filter18_f_1078_4631" x="14.236" y="21.4742" width="6.72655" height="6.72734" filterUnits="userSpaceOnUse" color-interpolation-filters="sRGB">
<feFlood flood-opacity="0" result="BackgroundImageFix"/>
<feBlend mode="normal" in="SourceGraphic" in2="BackgroundImageFix" result="shape"/>
<feGaussianBlur stdDeviation="0.05" result="effect1_foregroundBlur_1078_4631"/>
</filter>
<filter id="filter19_f_1078_4631" x="43.2024" y="17.775" width="7.36873" height="7.36992" filterUnits="userSpaceOnUse" color-interpolation-filters="sRGB">
<feFlood flood-opacity="0" result="BackgroundImageFix"/>
<feBlend mode="normal" in="SourceGraphic" in2="BackgroundImageFix" result="shape"/>
<feGaussianBlur stdDeviation="0.05" result="effect1_foregroundBlur_1078_4631"/>
</filter>
<filter id="filter20_f_1078_4631" x="19.3079" y="15.9977" width="2.02034" height="6.12188" filterUnits="userSpaceOnUse" color-interpolation-filters="sRGB">
<feFlood flood-opacity="0" result="BackgroundImageFix"/>
<feBlend mode="normal" in="SourceGraphic" in2="BackgroundImageFix" result="shape"/>
<feGaussianBlur stdDeviation="0.05" result="effect1_foregroundBlur_1078_4631"/>
</filter>
<filter id="filter21_f_1078_4631" x="49.336" y="25.4457" width="2.20784" height="6.16328" filterUnits="userSpaceOnUse" color-interpolation-filters="sRGB">
<feFlood flood-opacity="0" result="BackgroundImageFix"/>
<feBlend mode="normal" in="SourceGraphic" in2="BackgroundImageFix" result="shape"/>
<feGaussianBlur stdDeviation="0.075" result="effect1_foregroundBlur_1078_4631"/>
</filter>
<filter id="filter22_f_1078_4631" x="50.7996" y="19.4789" width="6.93174" height="2.97578" filterUnits="userSpaceOnUse" color-interpolation-filters="sRGB">
<feFlood flood-opacity="0" result="BackgroundImageFix"/>
<feBlend mode="normal" in="SourceGraphic" in2="BackgroundImageFix" result="shape"/>
<feGaussianBlur stdDeviation="0.075" result="effect1_foregroundBlur_1078_4631"/>
</filter>
<filter id="filter23_f_1078_4631" x="36.5555" y="17.6078" width="6.74769" height="1.91719" filterUnits="userSpaceOnUse" color-interpolation-filters="sRGB">
<feFlood flood-opacity="0" result="BackgroundImageFix"/>
<feBlend mode="normal" in="SourceGraphic" in2="BackgroundImageFix" result="shape"/>
<feGaussianBlur stdDeviation="0.075" result="effect1_foregroundBlur_1078_4631"/>
</filter>
<radialGradient id="paint0_radial_1078_4631" cx="0" cy="0" r="1" gradientUnits="userSpaceOnUse" gradientTransform="translate(48.022 15.087) rotate(93.957) scale(20.445 13.4647)">
<stop offset="0.583" stop-color="#3A3043" stop-opacity="0"/>
<stop offset="1" stop-color="#3A3043"/>
</radialGradient>
<radialGradient id="paint1_radial_1078_4631" cx="0" cy="0" r="1" gradientUnits="userSpaceOnUse" gradientTransform="translate(16.043 19.4203) rotate(68.1339) scale(17.767 11.701)">
<stop offset="0.583" stop-color="#3A3043" stop-opacity="0"/>
<stop offset="1" stop-color="#3A3043"/>
</radialGradient>
<radialGradient id="paint2_radial_1078_4631" cx="0" cy="0" r="1" gradientUnits="userSpaceOnUse" gradientTransform="translate(13.6711 35.5945) rotate(-134.454) scale(5.43822 12.3561)">
<stop stop-color="#90869A"/>
<stop offset="1" stop-color="#90869A" stop-opacity="0"/>
</radialGradient>
<linearGradient id="paint3_linear_1078_4631" x1="57.9727" y1="11.5484" x2="52.329" y2="16.9742" gradientUnits="userSpaceOnUse">
<stop offset="0.148" stop-color="#C0BEC3"/>
<stop offset="1" stop-color="#C0BEC3" stop-opacity="0"/>
</linearGradient>
<linearGradient id="paint4_linear_1078_4631" x1="37.4954" y1="30.3617" x2="42.7055" y2="25.4398" gradientUnits="userSpaceOnUse">
<stop stop-color="#C0BEC3"/>
<stop offset="1" stop-color="#C0BEC3" stop-opacity="0"/>
</linearGradient>
<linearGradient id="paint5_linear_1078_4631" x1="27.2391" y1="16.1133" x2="22.2868" y2="20.8758" gradientUnits="userSpaceOnUse">
<stop offset="0.148" stop-color="#C0BEC3"/>
<stop offset="1" stop-color="#C0BEC3" stop-opacity="0"/>
</linearGradient>
<linearGradient id="paint6_linear_1078_4631" x1="9.26725" y1="32.625" x2="13.8399" y2="28.3055" gradientUnits="userSpaceOnUse">
<stop stop-color="#C0BEC3"/>
<stop offset="1" stop-color="#C0BEC3" stop-opacity="0"/>
</linearGradient>
<linearGradient id="paint7_linear_1078_4631" x1="33.1172" y1="31.3828" x2="33.1172" y2="60.6422" gradientUnits="userSpaceOnUse">
<stop stop-color="#BFB8C7"/>
<stop offset="1" stop-color="#BFB8C7" stop-opacity="0"/>
</linearGradient>
<linearGradient id="paint8_linear_1078_4631" x1="52.7836" y1="47.5898" x2="52.1719" y2="47.5898" gradientUnits="userSpaceOnUse">
<stop stop-color="#BEB8C4"/>
<stop offset="1" stop-color="#BEB8C4" stop-opacity="0"/>
</linearGradient>
<linearGradient id="paint9_linear_1078_4631" x1="13.4508" y1="46.9477" x2="14.3297" y2="46.9477" gradientUnits="userSpaceOnUse">
<stop stop-color="#C5C1CA"/>
<stop offset="1" stop-color="#C5C1CA" stop-opacity="0"/>
</linearGradient>
<linearGradient id="paint10_linear_1078_4631" x1="20.1891" y1="44.6039" x2="30.3704" y2="44.6039" gradientUnits="userSpaceOnUse">
<stop stop-color="#3B284D"/>
<stop offset="1" stop-color="#32273F"/>
</linearGradient>
<linearGradient id="paint11_linear_1078_4631" x1="20.1891" y1="48.7973" x2="30.3704" y2="48.7973" gradientUnits="userSpaceOnUse">
<stop stop-color="#3B284D"/>
<stop offset="1" stop-color="#32273F"/>
</linearGradient>
<linearGradient id="paint12_linear_1078_4631" x1="20.1891" y1="52.9906" x2="30.3704" y2="52.9906" gradientUnits="userSpaceOnUse">
<stop stop-color="#3B284D"/>
<stop offset="1" stop-color="#32273F"/>
</linearGradient>
<linearGradient id="paint13_linear_1078_4631" x1="47.5923" y1="35.9336" x2="44.8548" y2="40.6422" gradientUnits="userSpaceOnUse">
<stop stop-color="white"/>
<stop offset="1" stop-color="#BA9FD1"/>
</linearGradient>
<radialGradient id="paint14_radial_1078_4631" cx="0" cy="0" r="1" gradientUnits="userSpaceOnUse" gradientTransform="translate(47.0214 39.7454) rotate(-135.385) scale(4.30711 5.35064)">
<stop offset="0.665" stop-color="#B6B2BA" stop-opacity="0"/>
<stop offset="1" stop-color="#B6B2BA"/>
</radialGradient>
<linearGradient id="paint15_linear_1078_4631" x1="47.5923" y1="49.2988" x2="44.8548" y2="54.0074" gradientUnits="userSpaceOnUse">
<stop stop-color="#FF4676"/>
<stop offset="1" stop-color="#BC3E68"/>
</linearGradient>
<radialGradient id="paint16_radial_1078_4631" cx="0" cy="0" r="1" gradientUnits="userSpaceOnUse" gradientTransform="translate(47.0225 53.1088) rotate(-135.385) scale(4.30711 5.35064)">
<stop offset="0.665" stop-color="#B9526A" stop-opacity="0"/>
<stop offset="1" stop-color="#B9526A"/>
</radialGradient>
<radialGradient id="paint17_radial_1078_4631" cx="0" cy="0" r="1" gradientUnits="userSpaceOnUse" gradientTransform="translate(45.0204 52.5518) rotate(-42.955) scale(2.9021)">
<stop offset="0.718" stop-color="#FF6285" stop-opacity="0"/>
<stop offset="1" stop-color="#FF6285"/>
</radialGradient>
<linearGradient id="paint18_linear_1078_4631" x1="55.7485" y1="39.3125" x2="55.7485" y2="49.6578" gradientUnits="userSpaceOnUse">
<stop stop-color="#ADABAE"/>
<stop offset="1" stop-color="#9481A8"/>
</linearGradient>
<linearGradient id="paint19_linear_1078_4631" x1="58.3501" y1="52.7141" x2="58.3501" y2="49.9859" gradientUnits="userSpaceOnUse">
<stop stop-color="#9E75C2"/>
<stop offset="1" stop-color="#84699E" stop-opacity="0"/>
</linearGradient>
<linearGradient id="paint20_linear_1078_4631" x1="59.5219" y1="50.2437" x2="56.9579" y2="50.2437" gradientUnits="userSpaceOnUse">
<stop stop-color="#848087"/>
<stop offset="1" stop-color="#848087" stop-opacity="0"/>
</linearGradient>
<linearGradient id="paint21_linear_1078_4631" x1="64.2094" y1="44.5301" x2="64.2094" y2="57.4207" gradientUnits="userSpaceOnUse">
<stop stop-color="#343137"/>
<stop offset="1" stop-color="#402B54"/>
</linearGradient>
<linearGradient id="paint22_linear_1078_4631" x1="62.8548" y1="57.2379" x2="64.7204" y2="53.6121" gradientUnits="userSpaceOnUse">
<stop stop-color="#694787"/>
<stop offset="1" stop-color="#442D59" stop-opacity="0"/>
</linearGradient>
<radialGradient id="paint23_radial_1078_4631" cx="0" cy="0" r="1" gradientUnits="userSpaceOnUse" gradientTransform="translate(69.1149 43.5059) rotate(90) scale(13.9893 1.02539)">
<stop offset="0.196" stop-color="#5A5560"/>
<stop offset="1" stop-color="#5A5560" stop-opacity="0"/>
</radialGradient>
<radialGradient id="paint24_radial_1078_4631" cx="0" cy="0" r="1" gradientUnits="userSpaceOnUse" gradientTransform="translate(19.5797 44.7078) scale(8.73309 1.39833)">
<stop offset="0.333" stop-color="#544B5E"/>
<stop offset="1" stop-color="#544B5E" stop-opacity="0"/>
</radialGradient>
<radialGradient id="paint25_radial_1078_4631" cx="0" cy="0" r="1" gradientUnits="userSpaceOnUse" gradientTransform="translate(19.5797 49.0512) scale(8.73309 1.39833)">
<stop offset="0.333" stop-color="#544B5E"/>
<stop offset="1" stop-color="#544B5E" stop-opacity="0"/>
</radialGradient>
<radialGradient id="paint26_radial_1078_4631" cx="0" cy="0" r="1" gradientUnits="userSpaceOnUse" gradientTransform="translate(19.5797 53.1762) scale(8.73309 1.39833)">
<stop offset="0.333" stop-color="#544B5E"/>
<stop offset="1" stop-color="#544B5E" stop-opacity="0"/>
</radialGradient>
<linearGradient id="paint27_linear_1078_4631" x1="11.5665" y1="17.4848" x2="20.5829" y2="24.9191" gradientUnits="userSpaceOnUse">
<stop stop-color="#62596B"/>
<stop offset="1" stop-color="#62596B" stop-opacity="0"/>
</linearGradient>
<linearGradient id="paint28_linear_1078_4631" x1="44.5829" y1="11.4105" x2="49.9969" y2="22.1426" gradientUnits="userSpaceOnUse">
<stop stop-color="#62596B"/>
<stop offset="1" stop-color="#62596B" stop-opacity="0"/>
</linearGradient>
<linearGradient id="paint29_linear_1078_4631" x1="21.1946" y1="26.8508" x2="29.4118" y2="31.2711" gradientUnits="userSpaceOnUse">
<stop stop-color="#62596B"/>
<stop offset="1" stop-color="#62596B" stop-opacity="0"/>
</linearGradient>
<linearGradient id="paint30_linear_1078_4631" x1="14.9532" y1="26.4039" x2="17.1704" y2="24.3695" gradientUnits="userSpaceOnUse">
<stop stop-color="#62596B"/>
<stop offset="1" stop-color="#62596B" stop-opacity="0"/>
</linearGradient>
<linearGradient id="paint31_linear_1078_4631" x1="20.8125" y1="22.8508" x2="19.8469" y2="24.0063" gradientUnits="userSpaceOnUse">
<stop stop-color="#62596B"/>
<stop offset="1" stop-color="#62596B" stop-opacity="0"/>
</linearGradient>
<linearGradient id="paint32_linear_1078_4631" x1="43.9759" y1="23.1805" x2="46.4157" y2="20.9445" gradientUnits="userSpaceOnUse">
<stop stop-color="#62596B"/>
<stop offset="1" stop-color="#62596B" stop-opacity="0"/>
</linearGradient>
<linearGradient id="paint33_linear_1078_4631" x1="50.4212" y1="19.2734" x2="49.3594" y2="20.5461" gradientUnits="userSpaceOnUse">
<stop stop-color="#62596B"/>
<stop offset="1" stop-color="#62596B" stop-opacity="0"/>
</linearGradient>
<linearGradient id="paint34_linear_1078_4631" x1="21.1782" y1="16.1484" x2="23.4657" y2="18.2906" gradientUnits="userSpaceOnUse">
<stop stop-color="#62596B"/>
<stop offset="1" stop-color="#62596B" stop-opacity="0"/>
</linearGradient>
<linearGradient id="paint35_linear_1078_4631" x1="49.561" y1="26.1832" x2="54.4923" y2="27.1652" gradientUnits="userSpaceOnUse">
<stop stop-color="#62596B"/>
<stop offset="1" stop-color="#62596B" stop-opacity="0"/>
</linearGradient>
<linearGradient id="paint36_linear_1078_4631" x1="51.0235" y1="19.9281" x2="56.0602" y2="28.2883" gradientUnits="userSpaceOnUse">
<stop stop-color="#62596B"/>
<stop offset="1" stop-color="#62596B" stop-opacity="0"/>
</linearGradient>
<linearGradient id="paint37_linear_1078_4631" x1="36.7782" y1="17.9328" x2="38.1469" y2="22.4727" gradientUnits="userSpaceOnUse">
<stop stop-color="#62596B"/>
<stop offset="1" stop-color="#62596B" stop-opacity="0"/>
</linearGradient>
<clipPath id="clip0_1078_4631">
<rect width="75.1866" height="67" fill="white"/>
</clipPath>
</defs>
</svg>
