<svg width="74" height="68" viewBox="0 0 74 68" fill="none" xmlns="http://www.w3.org/2000/svg">
<path d="M58.9096 56.0838C47.6574 67.3361 28.4607 72.4176 12.9767 56.9279C-2.50732 41.4382 2.56847 22.2472 13.8207 10.9949C20.0542 4.7443 27.896 1.03727 35.9203 0.518289C44.6746 -0.00639838 52.9385 3.34134 59.7537 10.1566C66.5689 16.9718 69.8767 25.1957 69.3521 33.95C68.8274 41.9686 65.1089 49.8731 58.9096 56.0838Z" fill="url(#paint0_radial_1078_4712)"/>
<path d="M42.2964 0.826172C47.9083 2.14359 53.1324 5.15484 57.7576 9.74586C64.6014 16.5896 67.8806 24.7907 67.356 33.5393C66.8199 41.5807 63.1014 49.4681 56.8907 55.6788C49.6078 62.9617 38.9943 67.6554 28.2097 65.8589C39.673 68.642 51.1705 63.8229 58.9096 56.0838C65.1089 49.8731 68.8274 41.9685 69.3521 33.9442C69.8767 25.1899 66.5689 16.966 59.7537 10.1508C54.6152 5.01227 48.6497 1.84703 42.2964 0.826172Z" fill="#EB8F00"/>
<path d="M55.2482 20.2272C53.6685 19.771 51.9918 20.5523 51.3245 22.0579C48.3871 27.3996 44.6975 32.2915 40.3688 36.5838C36.08 40.9125 31.1868 44.6024 25.8429 47.5338C25.1179 47.8595 24.5341 48.435 24.1981 49.1553C23.862 49.8756 23.796 50.6927 24.0122 51.4575C24.4799 53.0259 26.0482 53.7958 27.5253 54.349C35.8006 57.4458 44.9085 55.1418 51.9062 48.1839L51.9746 48.1212C58.9268 41.1235 61.2308 32.0156 58.134 23.7346C57.5865 22.2632 56.8109 20.6892 55.2482 20.2272Z" fill="#422B0D"/>
<path d="M51.4671 47.614L51.4328 47.6482V47.6824L51.4671 47.614ZM40.9334 37.0176L40.8707 37.0746L40.8136 37.1373L40.9334 37.0176Z" fill="#422B0D"/>
<path d="M40.9334 37.0176L40.8707 37.0746L40.8136 37.1373L40.9334 37.0176ZM51.4671 47.614L51.4328 47.6482V47.6824L51.4671 47.614Z" fill="#422B0D"/>
<path d="M56.7824 40.0859C56.4915 40.0859 56.2121 40.1259 55.9383 40.1487C52.8415 40.3483 49.9329 41.6999 47.7828 43.9355C45.4788 46.1484 44.0188 49.1026 43.6538 52.2792C43.6196 52.5587 43.5853 52.8495 43.5682 53.1233C43.5511 53.397 43.6139 53.6252 43.6481 53.8533C46.7312 52.4969 49.5324 50.574 51.9062 48.1844L51.9746 48.1216C54.2616 45.8461 56.1208 43.177 57.461 40.2456C57.2386 40.1772 57.0105 40.1259 56.7824 40.0859Z" fill="#ED7770"/>
<path d="M51.3245 22.0579C48.3871 27.3996 44.6975 32.2915 40.3688 36.5838C36.08 40.9125 31.1868 44.6024 25.8429 47.5338C25.1179 47.8595 24.5341 48.435 24.1981 49.1553C23.862 49.8756 23.796 50.6927 24.0122 51.4575C24.0864 51.6914 24.1833 51.9138 24.3088 52.1248C24.5426 52.045 24.765 51.9537 24.9875 51.8453C32.2716 49.4293 38.8729 45.3075 44.2412 39.8232C49.5042 34.6748 53.5207 28.3915 55.9839 21.4534C56.0809 21.2196 56.1664 20.98 56.2406 20.7348C55.944 20.5067 55.6075 20.3299 55.2482 20.2272C53.6685 19.771 51.9918 20.5523 51.3245 22.0579Z" fill="white"/>
<path d="M40.8136 37.4399C44.1613 34.2005 46.3513 31.0181 48.9862 27.14C49.642 26.1705 50.2637 25.1781 50.8625 24.1573L51.296 23.3874C51.41 23.1877 51.5355 22.9938 51.6838 22.817C51.9461 22.492 52.2826 22.241 52.6704 22.0813C53.5715 21.7506 54.5581 21.7335 55.4706 22.0357C57.3242 22.9254 58.9381 26.0963 58.7328 25.5032C58.7328 25.5032 58.3963 24.1744 58.3849 24.1573C57.9287 23.0167 57.461 21.7278 56.2805 20.7354C55.6602 20.2623 54.9234 19.9658 54.1483 19.8774C53.3731 19.7891 52.5885 19.9121 51.8777 20.2335C51.201 20.5408 50.6126 21.0135 50.1667 21.608C49.95 21.8817 49.7561 22.1783 49.5964 22.492L49.2143 23.2448C48.6839 24.2428 48.1193 25.2295 47.5034 26.1933C45.3134 29.849 42.7299 33.2538 39.7985 36.3449L39.7072 36.4361C36.6812 39.3328 33.3413 41.8827 29.7495 44.0384C28.78 44.6087 27.7991 45.179 26.801 45.7493L26.0254 46.1428C25.7117 46.3025 25.4152 46.4907 25.1414 46.7131C24.5438 47.1572 24.0688 47.746 23.7613 48.4241C23.4612 49.1308 23.3559 49.905 23.4562 50.6662C23.5565 51.4274 23.8587 52.1478 24.3316 52.7528C25.8657 54.7545 29.3674 55.034 29.3845 55.034C29.9549 55.2393 26.4988 53.7679 25.6091 51.9144C25.2954 51.0347 25.2954 50.0737 25.6091 49.194C25.7574 48.7948 26.0026 48.4412 26.3277 48.1674C26.5045 48.0192 26.6984 47.8937 26.898 47.7853L27.6679 47.3519C28.6831 46.7816 29.6754 46.1257 30.6506 45.4699C34.5231 42.835 37.4944 40.9074 40.7167 37.5311" fill="#EB8F00"/>
<path d="M65.7534 15.5397C66.4377 19.8969 62.4342 24.026 58.8013 24.5165C56.2463 24.8586 53.3947 24.2712 49.1059 23.2047C48.4729 23.085 47.8284 22.8968 47.1213 22.72C44.5092 21.9957 41.9428 21.1231 39.4277 20.1079C39.1895 20.0204 38.992 19.848 38.8731 19.6239C38.7542 19.3997 38.7222 19.1395 38.7833 18.8932C38.8574 18.6765 39.0057 18.4883 39.1939 18.3628C41.118 16.3903 43.2811 14.666 45.6327 13.23C51.5697 9.55716 53.8281 9.06099 56.3831 8.7188C59.9077 8.14278 65.012 10.7833 65.7534 15.5397Z" fill="url(#paint1_radial_1078_4712)"/>
<path d="M60.2727 11.4621C61.9323 12.2492 61.9437 14.5247 59.4115 14.884C57.7861 15.1007 49.4196 15.8878 50.3949 14.3422C51.9917 11.8043 57.9287 10.35 60.2727 11.4621Z" fill="#81D4FA"/>
<path d="M41.5265 15.4026L36.2625 20.1248L38.213 12.6252C38.2301 12.5339 38.2472 12.4484 38.2529 12.3571C38.3043 12.0478 38.2941 11.7313 38.223 11.4259C38.1518 11.1205 38.0211 10.8321 37.8383 10.5773C37.6556 10.3224 37.4243 10.1062 37.1578 9.94087C36.8913 9.77556 36.5948 9.66446 36.2853 9.61393C35.9774 9.5626 35.658 9.57401 35.35 9.64245C34.673 9.82855 34.0696 10.2184 33.6217 10.7591C33.1739 11.2999 32.9031 11.9653 32.8463 12.6651C32.5213 15.9786 31.757 23.7862 31.4605 26.826C31.3692 27.1282 31.5403 27.4476 31.8426 27.5389C32.0422 27.6016 32.2589 27.5446 32.4072 27.3963L44.207 19.9366L44.4408 19.7712C45.8666 18.6762 46.2145 16.5889 45.0624 15.3798C44.1842 14.4559 42.6671 14.53 41.5265 15.4026Z" fill="#422B0D"/>
<path d="M14.8644 56.9778C14.6591 54.5198 14.6534 52.307 16.8719 45.9936C17.7388 43.4956 18.9136 41.1174 20.3679 38.9103C20.4478 38.705 20.596 38.5339 20.7842 38.4199C21.2348 38.1917 21.7823 38.3457 22.056 38.7677C23.5217 40.9121 24.862 43.1363 26.0824 45.429C26.3904 46.0563 26.6984 46.6152 26.9436 47.1856C28.8256 51.001 29.9606 53.5502 30.1659 56.0083C30.4567 59.5043 27.417 64.101 23.2024 64.3634C18.6113 64.6257 15.0811 60.3997 14.8644 56.9778Z" fill="url(#paint2_radial_1078_4712)"/>
<path d="M18.9136 50.2313C20.1512 48.9937 21.1378 56.9781 21.269 58.5465C21.4686 60.9874 19.3356 61.4437 18.2634 60.0578C16.735 58.1187 16.8776 52.2388 18.9136 50.2313Z" fill="#81D4FA"/>
<path d="M17.2996 42.5846L21.0979 36.6134L14.0203 39.7729L13.7808 39.8699C12.5318 40.2919 11.1745 39.6247 10.7467 38.3757C10.6441 38.0791 10.6042 37.7654 10.627 37.4518C10.6988 36.753 10.9843 36.0933 11.4445 35.5626C11.9048 35.0319 12.5175 34.656 13.1991 34.4861L26.898 30.7734C27.1832 30.6365 27.5253 30.7563 27.6622 31.0415C27.7535 31.2297 27.7364 31.4521 27.6109 31.6175L22.21 44.478C22.1758 44.5693 22.1359 44.6548 22.0903 44.7404C21.2462 46.3258 19.2387 47.0216 17.8585 46.0749C16.8035 45.3563 16.6324 43.8621 17.2996 42.5846Z" fill="#422B0D"/>
<defs>
<radialGradient id="paint0_radial_1078_4712" cx="0" cy="0" r="1" gradientUnits="userSpaceOnUse" gradientTransform="translate(35.3797 32.3437) rotate(-45) scale(32.485)">
<stop offset="0.5" stop-color="#FDE030"/>
<stop offset="0.92" stop-color="#F7C02B"/>
<stop offset="1" stop-color="#F4A223"/>
</radialGradient>
<radialGradient id="paint1_radial_1078_4712" cx="0" cy="0" r="1" gradientUnits="userSpaceOnUse" gradientTransform="translate(44.2834 15.0628) rotate(-97.4809) scale(17.9948 27.8315)">
<stop offset="0.46" stop-color="#29B6F6"/>
<stop offset="1" stop-color="#1E88E5"/>
</radialGradient>
<radialGradient id="paint2_radial_1078_4712" cx="0" cy="0" r="1" gradientUnits="userSpaceOnUse" gradientTransform="translate(22.5877 39.6932) rotate(175.426) scale(17.3128 26.499)">
<stop offset="0.46" stop-color="#29B6F6"/>
<stop offset="1" stop-color="#1E88E5"/>
</radialGradient>
</defs>
</svg>
