<svg width="33" height="38" viewBox="0 0 33 38" fill="none" xmlns="http://www.w3.org/2000/svg">
<path d="M31.5 19C31.5 12.8567 31.3017 8.5625 31.1142 5.87333C30.9667 3.74833 29.38 2.09083 27.2583 1.905C24.9342 1.7 21.4042 1.5 16.5 1.5C11.5958 1.5 8.06667 1.7 5.74167 1.905C3.62 2.09083 2.03333 3.74833 1.88583 5.87333C1.69833 8.5625 1.5 12.8567 1.5 19M31.5 19C31.5 25.1433 31.3017 29.4375 31.1142 32.1267C30.9667 34.2517 29.38 35.9092 27.2583 36.095C24.9333 36.3 21.4042 36.5 16.5 36.5C11.5958 36.5 8.06583 36.3 5.74167 36.095C3.62 35.9092 2.03333 34.2517 1.88583 32.1267C1.69833 29.4375 1.5 25.1433 1.5 19M31.5 19H1.5" stroke="black" stroke-width="1.5" stroke-linecap="round" stroke-linejoin="round"/>
<path d="M31.0417 32.6817C27.6442 29.29 25.3025 27.4233 23.8383 26.4142C22.655 25.5975 21.195 25.7308 20.0925 26.6558C18.8067 27.7333 16.7342 29.5983 13.5833 32.75C12.3921 33.9375 11.2205 35.1446 10.0692 36.3708M7.33333 13.1667H25.6667M7.33333 7.75H17.3333M11.5 26.5C11.5 27.163 11.2366 27.7989 10.7678 28.2678C10.2989 28.7366 9.66304 29 9 29C8.33696 29 7.70107 28.7366 7.23223 28.2678C6.76339 27.7989 6.5 27.163 6.5 26.5C6.5 25.837 6.76339 25.2011 7.23223 24.7322C7.70107 24.2634 8.33696 24 9 24C9.66304 24 10.2989 24.2634 10.7678 24.7322C11.2366 25.2011 11.5 25.837 11.5 26.5Z" stroke="black" stroke-width="1.5" stroke-linecap="round" stroke-linejoin="round"/>
</svg>
